<?xml version="1.0" encoding="UTF-8"?>
<svg id="Layer_2" data-name="Layer 2" xmlns="http://www.w3.org/2000/svg" viewBox="0 0 300 300">
  <path d="m122.02,206.71c3.53,16.06,9.19,27.05,19.81,46.79-.01-.49-.03-.99-.04-1.48-6.03-15.35-16.16-28.94-19.76-45.31Z" style="fill: #fe1022;"/>
  <path d="m146.66,112.55s92.61-4.78,105.59,11.45c11.14,13.92,9.07,33.1,9.9,60.32.82,27.22-2.17,50.11-11.45,58.78s-52.24,10.21-98.68,11.45c-46.08,1.23-92.12-1.48-103.32-12.68-12.17-12.17-11.14-55.99-10.83-59.7s-.48-51.85,11.76-61.25c9.8-7.53,97.03-8.35,97.03-8.35Z" style="fill: #fe1022;"/>
  <path d="m136.74,2.68c3.78-.23,7.38-3.09,15.98-.77s12,10.78,12,10.78l3.4,11.18-61.87-.21s4.19-10,8.4-15.57c2.78-3.67,5.85-4.65,8.19-5.66,8.35-3.61,10.11.48,13.89.25Z" style="fill: #000514;"/>
  <polygon points="210.34 180.92 151.1 147.97 152.18 212.01 210.34 180.92" style="fill: #fff;"/>
  <path d="m136.25,13.87c36.8,1.09,52.97,19.5,52.28,37.74-1.24,32.48-26.13,62.38-27.53,77.34,0,0-10.05,49.34-1.39,70.38s11.29,31.09,17.32,48.88c4.49,13.24.93,48.4-25.83,50.42,0,0-45.52,11.2-53.36-30.32-5.26-27.84,21.96-30.78,21.96-30.78,0,0-22.32-51.56-21.71-90.95.62-39.39-17.74-61.46-15.05-92.39,2.68-30.93,28.87-41.04,53.31-40.32Z" style="fill: #000514;"/>
  <path d="m124.26,44.96s4.79,7.58,12.68,7.11,15.18-6.24,15.18-6.24c0,0-2.12,38.56-4.74,56.82,0,0-6.19,73.47,1.55,95.28,0,0,9.31,25.21,13.92,31.86,5.36,7.73,18.87,34.54,6.91,51.25-8.73,12.2-30.95,16.41-43.72,11.86-24.75-8.82-26.14-25.37-22.58-34.03,0,0,6.65-10.94,18.72-11.14,3.15-.05,5.41,1.08,5.41,1.08,0,0-10.36,5.93-3.45,9.38s14.59,2.89,15.11-5.16c.52-8.04-17.32-34.7-20-48.52s-3.74-61.51-2.68-77.13l7.71-82.44Z" style="fill: #000514;"/>
  <path d="m110.11,23.62l7.42,11.14s-6.5,34.96-6.19,42.23c.31,7.27-2.47,57.23-2.47,57.23,0,0-26.2-59.39-19.02-86.93,0,0,5.57-19.26,20.26-23.66Z" style="fill: #ffe800;"/>
  <path d="m165.1,24.54l-7.09,9.65s-.17,35.88-1.48,43.03c-1.31,7.16-6.42,56.99-6.42,56.99,0,0,32.49-55.19,32.37-83.52,0,0,0-18.12-17.37-26.15Z" style="fill: #ffe800;"/>
  <path d="m121.32,7.84s6.01-2.15,9.38-1.49,5.22,1.3,7.04,1.28c7.22-.06,12.36-3.51,17.79.77,5.5,4.34,8.76,10.71,2.06,16.13s-6.19,6.76-6.19,6.76c0,0-1.86,8.76-4.54,9.07s-6.24-1.55-8.59-1.55-7.23,2.46-8.43,1.58c-4.43-3.23-2.79-3.83-4.66-8.61-1.86-4.78-8.9-6.48-9.99-13.21s6.11-10.75,6.11-10.75Z" style="fill: #ffe800;"/>
  <path d="m119.82,19.13s1.62,3.36,5.26,3.4c1.41-.09,1.14-.07,2.75-.46.27-.35-.46-4.76-1.82-6.61s-4.49-4.79-5.95-1.62-.23,5.29-.23,5.29Z" style="fill: #010f10;"/>
  <path d="m150.89,15.11c-.48.74-1.41,1.74-2.17,4.31-.51,2.29-.21,3.11-.21,3.11,0,0,5.61-.54,7.37-2.01s3.41-6.02.15-7.27-4.67,1.12-5.16,1.86Z" style="fill: #010f10;"/>
  <path d="m143.21,34.7l5.24-6.73s-2.97-1.62-4.23.7-1.01,6.03-1.01,6.03Z" style="fill: #010f10;"/>
  <path d="m133.46,34.67l-5.35-6.64s2.94-1.67,4.24.62,1.11,6.01,1.11,6.01Z" style="fill: #010f10;"/>
  <path d="m112.13,26.65s-5.48,1.25-10.84,6.4-8.35,11.24-8.46,13.92.82-5.16,7.11-5.26,4.23,13.71,4.23,13.71c0,0,.95,42.6,6.02,53.37,0,0,1.61-35.23,3-45.59,1.28-9.5,4.33-28.46,4.33-28.46l-5.4-8.1Z" style="fill: #f20203;"/>
  <path d="m163.54,26.65s5.94,2.15,10.59,7.96c4.65,5.81,6.83,12.23,6.58,14.9s-1.67-7.53-7.55-7.28c-4.93.64-4.79,8.23-5.67,14.44s-9.16,50.22-15.58,60.24c0,0,4.15-39.76,5.14-54.7.87-13.14.76-28.01.76-28.01l5.73-7.54Z" style="fill: #f20203;"/>
  <path d="m122.13,67.73s6.18,6.26,13.6,5.85,14.99-5.85,14.99-5.85l-1.23,15.57s-6.33,6.36-15.19,5.74c-8.87-.62-13.67-5.14-13.67-5.14l1.51-16.18Z" style="fill: #ffe800;"/>
  <path d="m124.26,44.96s5.26,7.53,12.68,7.11,15.18-6.24,15.18-6.24l-.43,7.22s-5.11,8.29-14.51,8.25c-8.89-.04-13.68-8.25-13.68-8.25l.76-8.09Z" style="fill: #f20203;"/>
  <path d="m124.03,53.38s5.73,8.34,13.16,7.93,14.01-8.25,14.01-8.25l-.48,9.07s-4.47,5.6-13.87,5.55c-8.89-.04-13.67-5.14-13.67-5.14l.86-9.16Z" style="fill: #ffe800;"/>
  <path d="m120.35,89.09s6.3,5.94,13.73,6.04c7.84.1,14.78-5.32,14.78-5.32l-2.2,22.74s-5.77,6.6-14.64,5.98-13.8-6.64-13.8-6.64l2.13-22.81Z" style="fill: #ffe800;"/>
  <path d="m117.6,118.57s6.3,5.94,13.73,6.04c7.84.1,14.78-5.32,14.78-5.32l-.82,21.72s-7.15,7.62-16.02,7-12.92-6.7-12.92-6.7l1.25-22.75Z" style="fill: #ffe800;"/>
  <path d="m115.52,146.27s7.4,6.17,14.84,6.26c7.84.1,14.79-5.87,14.79-5.87v31.16s-5.05,5.72-13.92,5.1c-8.87-.62-15.71-6.86-15.71-6.86v-29.8Z" style="fill: #ffe800;"/>
  <path d="m116.82,182.98s6.95,6.71,15.61,6.09,13.68-5.71,13.68-5.71l6,24.78s-3.34,5.26-11.69,5.26-18.87-3.4-18.87-3.4c0,0-3.02-10.36-3.56-14.69-.46-3.7-1.17-12.33-1.17-12.33Z" style="fill: #ffe800;"/>
  <path d="m153.73,213.4s8.33,17.07,10.49,18.62c0,0-7.79,3.25-15.06,3.15-3.47-.05-15.75-1.47-18.83-3.51-.82-.54-7.39-18.25-7.39-18.25,0,0,11.45,5.72,18.41,5.1s12.37-5.1,12.37-5.1Z" style="fill: #ffe800;"/>
  <path d="m165.64,235.16s6.19,9.01,8.35,20.54c0,0-6.96,3.28-14.23,3.17-3.47-.05-14.25-2.98-17.32-5.03-.82-.54-9.28-18.68-9.28-18.68,0,0,11.29,7,20.64,5.46,6.89-1.14,11.84-5.46,11.84-5.46Z" style="fill: #ffe800;"/>
  <path d="m128.21,248.43s-21.5-2.71-25.83,12.61,10.98,31.86,37.28,33.56,25.68-8.82,25.83-8.82-19.64-.31-19.57-9.28c.03-3.08,3.25,2.47,8.43,3.87,6.48,1.74,14.9,2.45,16.4-.85,2.55-5.65,4.18-20.88,3.94-20.65s-7.98,6.75-15.87,5.2c-4.13-.81-9.96-2.11-11.89-12.94l-7.43-2.74c2.48,13.18-8.02,15.08-16.39,9.86-1.86-1.16-2.87-4.89-.79-6.05,6.92-3.85,5.89-3.77,5.89-3.77Z" style="fill: #ffe800;"/>
  <path d="m101.77,264.1c-.75,1.93.11,5.95.86,8.29,0,0,1.93,7.98,8.04,13.78,6.11,5.8,16.2,13.83,39.46,11.1,15.98-5.23,15.36-11.49,15.36-11.49,0,0-6.03-.39-10.61-1.5-3.83-1.24-5.09-1.84-7.06-3.49-1.57-1.84-1.86-3.03-1.77-4.08.04-.52.65-1,1.05-.68,3.23,2.6,4.54,4.39,12.88,5.48,5.33.7,8.73.27,10.08-1.1-12.81-.38-16.67-6.46-18.72-15.28-.23-.78-.47-1.55-.7-2.33-2.47-5.62-6.45-14.67-8.92-20.29-1.32-2.22-2.63-4.44-3.95-6.67-2.01-4.29-4.02-8.57-6.03-12.86h0c-1.4-2.84-3.2-8.19-4.46-10.53-3.94-7.3-3.49-11.45-9.94-23.56,0,0,.4,10.11,3.54,21.36,1.86,6.68,13.73,29.96,19.76,45.31,0,0,2.03,4,2.57,7.68.77,5.31-1.38,12.27-1.38,12.27-5.27,7.98-13.48,7.3-21.87,5.2,0,0-10.71-3.45-18.19-16.63Z" style="fill: #ef0003;"/>
</svg>